<?xml version="1.0" standalone="no"?>
<!DOCTYPE svg PUBLIC "-//W3C//DTD SVG 20010904//EN"
 "http://www.w3.org/TR/2001/REC-SVG-20010904/DTD/svg10.dtd">
<svg version="1.0" xmlns="http://www.w3.org/2000/svg"
 width="32.000000pt" height="32.000000pt" viewBox="0 0 32.000000 32.000000"
 preserveAspectRatio="xMidYMid meet">

<g transform="translate(0.000000,32.000000) scale(0.100000,-0.100000)"
fill="#000000" stroke="none">
<path d="M95 306 c-101 -44 -125 -178 -46 -257 61 -61 151 -65 216 -8 134 118
-6 337 -170 265z m142 -26 c87 -52 83 -198 -6 -245 -38 -19 -104 -19 -142 0
-89 47 -93 193 -6 245 42 26 112 26 154 0z"/>
<path d="M155 190 l29 -30 -29 -30 c-37 -38 -21 -38 25 0 l34 30 -34 30 c-46
38 -62 38 -25 0z"/>
</g>
</svg>
